<svg width="64" height="64" viewBox="0 0 64 64" xmlns="http://www.w3.org/2000/svg"><defs><clipPath id="s66"><path d="M17 5 H40 L53 18 V56 Q53 59 50 59 H17 Q14 59 14 56 V8 Q14 5 17 5 Z"/></clipPath></defs><path d="M17 5 H40 L53 18 V56 Q53 59 50 59 H17 Q14 59 14 56 V8 Q14 5 17 5 Z" fill="#fbfbf3" stroke="#bcba95" stroke-width="1.1"/><path d="M40 5 V15 Q40 18 43 18 H53 Z" fill="#dbd9bc" stroke="#bcba95" stroke-width="1.1" stroke-linejoin="round"/><g transform="translate(33.5 30) scale(.5) translate(-32 -32)">
<rect x="13" y="13" width="17" height="17" rx="4.5" fill="#7c7402"/>
<rect x="34" y="13" width="17" height="17" rx="4.5" fill="#7c7402"/>
<rect x="13" y="34" width="17" height="17" rx="4.5" fill="#7c7402"/>
<rect x="34" y="34" width="17" height="17" rx="4.5" fill="#bbb55e"/>
<path d="M21.5 16.8 V26.2 M16.8 21.5 H26.2 M37.8 21.5 H47.2 M17.9 38.9 L25.1 46.1 M25.1 38.9 L17.9 46.1 M37.8 40 H47.2 M37.8 45 H47.2" stroke="#f0f0df" stroke-width="2.7" stroke-linecap="round"/></g><rect x="14" y="44" width="39" height="15" fill="#7c7402" clip-path="url(#s66)"/><text x="33.5" y="54.6" text-anchor="middle" font-family="IBM Plex Mono, ui-monospace, monospace" font-weight="600" font-size="8.2" letter-spacing=".3" fill="#fdfcf5">CALC</text></svg>
